<?xml version="1.0"?>
<svg xmlns="http://www.w3.org/2000/svg" xmlns:xlink="http://www.w3.org/1999/xlink" xmlns:svgjs="http://svgjs.com/svgjs" version="1.1" width="512" height="512" x="0" y="0" viewBox="0 0 512 512" style="enable-background:new 0 0 512 512" xml:space="preserve" class=""><g transform="matrix(-1.8369701987210297e-16,-1,1,-1.8369701987210297e-16,-2.842170943040401e-14,512)">
<path xmlns="http://www.w3.org/2000/svg" style="" d="M467,346h-30c-8.284,0-15-6.716-15-15s6.716-15,15-15h30c8.271,0,15-6.729,15-15v-90  c0-8.271-6.729-15-15-15h-30c-8.284,0-15-6.716-15-15s6.716-15,15-15h30c24.813,0,45,20.187,45,45v90  C512,325.813,491.813,346,467,346z" fill="#3e3e3e" data-original="#aeadb3" class=""/>
<path xmlns="http://www.w3.org/2000/svg" style="" d="M407,406H45c-24.813,0-45-20.187-45-45V151c0-24.813,20.187-45,45-45h362c24.813,0,45,20.187,45,45  v210C452,385.813,431.813,406,407,406z M45,136c-8.271,0-15,6.729-15,15v210c0,8.271,6.729,15,15,15h362c8.271,0,15-6.729,15-15V151  c0-8.271-6.729-15-15-15H45z" fill="#7c7c7c" data-original="#c8c6cd" class=""/>
<g xmlns="http://www.w3.org/2000/svg">
	<path style="" d="M135,346H75c-8.284,0-15-6.716-15-15V181c0-8.284,6.716-15,15-15h60c8.284,0,15,6.716,15,15v150   C150,339.284,143.284,346,135,346z M90,316h30V196H90V316z" fill="#2db920" data-original="#61de56" class=""/>
	<path style="" d="M256,346h-60c-8.284,0-15-6.716-15-15V181c0-8.284,6.716-15,15-15h60c8.284,0,15,6.716,15,15v150   C271,339.284,264.284,346,256,346z M211,316h30V196h-30V316z" fill="#2db920" data-original="#61de56" class=""/>
	<path style="" d="M377,346h-60c-8.284,0-15-6.716-15-15V181c0-8.284,6.716-15,15-15h60c8.284,0,15,6.716,15,15v150   C392,339.284,385.284,346,377,346z M332,316h30V196h-30V316z" fill="#2db920" data-original="#61de56" class=""/>
</g>
<g xmlns="http://www.w3.org/2000/svg">
</g>
<g xmlns="http://www.w3.org/2000/svg">
</g>
<g xmlns="http://www.w3.org/2000/svg">
</g>
<g xmlns="http://www.w3.org/2000/svg">
</g>
<g xmlns="http://www.w3.org/2000/svg">
</g>
<g xmlns="http://www.w3.org/2000/svg">
</g>
<g xmlns="http://www.w3.org/2000/svg">
</g>
<g xmlns="http://www.w3.org/2000/svg">
</g>
<g xmlns="http://www.w3.org/2000/svg">
</g>
<g xmlns="http://www.w3.org/2000/svg">
</g>
<g xmlns="http://www.w3.org/2000/svg">
</g>
<g xmlns="http://www.w3.org/2000/svg">
</g>
<g xmlns="http://www.w3.org/2000/svg">
</g>
<g xmlns="http://www.w3.org/2000/svg">
</g>
<g xmlns="http://www.w3.org/2000/svg">
</g>
</g></svg>
