<svg id="Capa_1" enable-background="new 0 0 510 510" height="512" viewBox="0 0 510 510" width="512" xmlns="http://www.w3.org/2000/svg"><path d="m495 345.167c0-24.353-19.814-44.167-44.167-44.167h-15.833v-218.5c0-45.49-37.01-82.5-82.5-82.5s-82.5 37.01-82.5 82.5v330c0 37.22-30.28 67.5-67.5 67.5s-67.5-30.28-67.5-67.5v-113.576c50.816-7.301 90-51.119 90-103.924v-105h-30v-90h-150v90h-30v105c0 52.805 39.184 96.623 90 103.924v113.576c0 53.762 43.738 97.5 97.5 97.5s97.5-43.738 97.5-97.5v-330c0-28.948 23.552-52.5 52.5-52.5s52.5 23.552 52.5 52.5v218.5h-15.833c-24.353 0-44.167 19.814-44.167 44.167v104.517h30v60h90v-60h30zm-420-315.167h90v60h-90zm120 90v30h-150v-30zm-150 75v-15h150v15c0 41.355-33.645 75-75 75s-75-33.645-75-75zm390 284.684h-30v-30h30zm30-60h-90v-74.517c0-7.811 6.355-14.167 14.167-14.167h61.666c7.811 0 14.167 6.355 14.167 14.167z"/></svg>