<?xml version="1.0"?>
<svg xmlns="http://www.w3.org/2000/svg" xmlns:xlink="http://www.w3.org/1999/xlink" xmlns:svgjs="http://svgjs.com/svgjs" version="1.1" width="512" height="512" x="0" y="0" viewBox="0 0 512.004 512.004" style="enable-background:new 0 0 512 512" xml:space="preserve" class=""><g><g xmlns="http://www.w3.org/2000/svg"><path d="m511.35 52.881-122 400c-3.044 9.919-14.974 13.828-23.29 7.67-7.717-5.727-203.749-151.217-214.37-159.1l-142.1-54.96c-5.79-2.24-9.6-7.81-9.59-14.02.01-6.21 3.85-11.77 9.65-13.98l482-184c5.824-2.232 12.488-.626 16.67 4.17 3.37 3.87 4.55 9.24 3.03 14.22z" fill="#5add56" data-original="#94dfda" style="" class=""/><path d="m511.35 52.881-122 400c-3.044 9.919-14.974 13.828-23.29 7.67l-190.05-141.05 332.31-280.84c3.37 3.87 4.55 9.24 3.03 14.22z" fill="#0d8d27" data-original="#61a7c5" style="" class=""/><path d="m507.89 58.821-271.49 286.4-63 125.03c-3.16 6.246-10.188 9.453-16.87 7.84-6.76-1.6-11.53-7.64-11.53-14.59v-175.3c0-4.86 2.35-9.41 6.31-12.23l337-239.69c6.29-4.48 14.95-3.45 20.01 2.38 5.07 5.83 4.88 14.56-.43 20.16z" fill="#eef4ff" data-original="#eef4ff" style=""/><path d="m507.89 58.821-271.49 286.4-63 125.03c-3.16 6.246-10.188 9.453-16.87 7.84-6.76-1.6-11.53-7.64-11.53-14.59l31.01-144 332.31-280.84c5.07 5.83 4.88 14.56-.43 20.16z" fill="#d9e6fc" data-original="#d9e6fc" style=""/></g></g></svg>
